<svg width="454" height="472" viewBox="0 0 454 472" fill="none" xmlns="http://www.w3.org/2000/svg">
<path d="M216.196 0.318725C141.774 0.318725 80.7373 61.2749 80.7373 135.777C80.7373 181.252 103.636 221.648 138.388 246.159C97.6528 262.457 62.725 290.569 38.0969 326.879C13.4687 363.189 0.266426 406.037 0.188063 449.911C-0.456976 478.938 43.4863 478.938 42.9219 449.911C42.8595 418.407 51.2267 387.46 67.1558 360.28C83.0848 333.099 105.996 310.675 133.512 295.334C161.028 279.992 192.148 272.292 223.643 273.031C255.138 273.769 285.863 282.921 312.629 299.536C336.899 314.453 359.233 278.008 334.963 263.092C322.62 255.673 309.575 249.489 296.019 244.627C319.069 227.813 336.205 204.134 344.973 176.984C353.741 149.833 353.691 120.605 344.83 93.4845C335.969 66.3644 318.752 42.7447 295.645 26.009C272.538 9.27333 244.727 0.280473 216.196 0.318725ZM216.196 43.0526C267.638 43.0526 308.92 84.3351 308.92 135.777C308.92 187.219 267.557 228.34 216.115 228.34C164.754 228.34 123.391 187.219 123.391 135.777C123.391 84.3351 164.834 43.0526 216.196 43.0526ZM347.058 405.968V448.702C347.703 476.438 389.147 476.438 389.792 448.702V405.968H432.526C460.907 405.968 460.907 363.234 432.526 363.234H389.792V320.581C389.792 314.914 387.541 309.479 383.534 305.472C379.527 301.465 374.092 299.214 368.425 299.214C362.758 299.214 357.323 301.465 353.316 305.472C349.309 309.479 347.058 314.914 347.058 320.581V363.315H303.437C273.927 364.605 276.023 407.339 304.405 406.048L347.058 405.968Z" fill="white"/>
</svg>
