<svg width="448" height="512" viewBox="0 0 448 512" fill="none" xmlns="http://www.w3.org/2000/svg">
<path fill-rule="evenodd" clip-rule="evenodd" d="M273.6 0C302.4 0 331.2 12.8 348.8 36.8L427.2 134.4C440 152 448 172.8 448 193.6V416C448 468.8 404.8 512 352 512H96C43.2 512 0 468.8 0 416V96C0 43.2 43.2 0 96 0H273.6ZM323.2 180.8C294.4 152 249.6 148.8 217.6 174.4C211.2 179.2 209.6 190.4 214.4 196.8C219.2 203.2 230.4 204.8 236.8 200C256 185.6 283.2 187.2 299.2 204.8C318.4 224 318.4 254.4 299.2 272L243.2 328L216 355.2L214.4 356.8C195.2 374.4 166.4 372.8 148.8 355.2C131.2 337.6 129.6 308.8 147.2 289.6L148.8 288L185.6 251.2L187.2 249.6C193.6 244.8 203.2 244.8 208 251.2C214.4 257.6 214.4 267.2 208 273.6L171.2 310.4L169.6 312C164.8 318.4 164.8 328 171.2 332.8C177.6 339.2 187.2 339.2 193.6 332.8L230.4 296L232 294.4C248 275.2 248 246.4 230.4 228.8C211.2 209.6 180.8 209.6 163.2 228.8L148.8 243.2L147.2 244.8L137.6 254.4L126.4 265.6C94.4 297.6 94.4 347.2 126.4 379.2C158.4 411.2 208 411.2 240 379.2L276.8 342.4L278.4 340.8L324.8 294.4L328 291.2C353.6 260.8 353.6 211.2 323.2 180.8Z" fill="white"/>
</svg>
