<svg width="455" height="452" viewBox="0 0 455 452" fill="none" xmlns="http://www.w3.org/2000/svg">
<path d="M148.743 451.714C165.492 451.737 182.168 449.492 198.315 445.04C258.306 428.3 312.899 396.216 356.713 351.95C400.526 307.685 432.048 252.765 448.171 192.606C455.14 166.42 456.22 139.016 451.335 112.363C446.45 85.7096 435.722 60.4697 419.92 38.4571L418.603 36.6286C410.236 24.8576 399.041 15.3816 386.05 9.07389C373.059 2.76613 358.689 -0.170573 344.264 0.53435C329.84 1.23927 315.825 5.56315 303.51 13.1076C291.196 20.652 280.978 31.1744 273.799 43.7051C263.949 61.0447 259.21 80.8184 260.129 100.739C261.048 120.66 267.588 139.913 278.992 156.272L297.607 182.805C276.217 233.557 235.852 273.949 185.113 295.371L159.294 276.757C142.777 264.838 123.159 257.966 102.815 256.973C82.4721 255.98 62.2773 260.908 44.6787 271.161L42.0456 272.715C29.8877 279.822 19.7025 289.859 12.4189 301.912C5.13538 313.965 0.985281 327.649 0.347148 341.717C-0.290985 355.785 2.60315 369.789 8.76561 382.451C14.9281 395.114 24.1627 406.032 35.6273 414.21L37.8947 415.838C70.1939 439.073 108.955 451.618 148.743 451.714ZM348.514 36.9394C356.438 36.8993 364.254 38.7856 371.287 42.4361C378.32 46.0865 384.361 51.3917 388.889 57.8948L390.206 59.7234C402.86 77.3589 411.451 97.5782 415.362 118.929C419.273 140.279 418.407 162.231 412.825 183.207C398.361 237.195 370.081 286.483 330.769 326.214C291.458 365.946 242.474 394.749 188.642 409.785C166.622 415.776 143.538 416.75 121.091 412.636C98.644 408.522 77.4061 399.425 58.9416 386.014L56.8936 384.551C50.3973 379.915 45.1651 373.727 41.6742 366.55C38.1834 359.373 36.5451 351.437 36.9087 343.465C37.2723 335.492 39.6263 327.738 43.7559 320.909C47.8856 314.079 53.6594 308.393 60.5507 304.368L63.1655 302.832C74.6495 296.153 87.8227 292.943 101.092 293.592C114.361 294.241 127.159 298.721 137.936 306.489L171.874 330.992C174.306 332.747 177.133 333.877 180.105 334.282C183.077 334.687 186.103 334.355 188.916 333.314C222.459 320.916 252.919 301.403 278.206 276.117C303.492 250.83 323.005 220.37 335.403 186.827C336.433 184.051 336.773 181.066 336.394 178.129C336.015 175.193 334.928 172.392 333.227 169.968L308.926 135.243C301.493 124.565 297.232 112.002 296.633 99.0048C296.034 86.0078 299.123 73.1065 305.543 61.7897C309.575 54.569 315.389 48.501 322.431 44.1638C329.473 39.8266 337.508 37.3647 345.771 37.0126C346.685 36.962 347.599 36.9376 348.514 36.9394Z" fill="white"/>
</svg>
