<svg width="32" height="32" viewBox="0 0 32 32" fill="none" xmlns="http://www.w3.org/2000/svg">
<path d="M3 9C3 5.6865 5.6865 3 9 3H16C16.2652 3 16.5196 2.89464 16.7071 2.70711C16.8946 2.51957 17 2.26522 17 2C17 1.73478 16.8946 1.48043 16.7071 1.29289C16.5196 1.10536 16.2652 1 16 1H9C4.5815 1 1 4.5815 1 9V12C1 12.2652 1.10536 12.5196 1.29289 12.7071C1.48043 12.8946 1.73478 13 2 13C2.26522 13 2.51957 12.8946 2.70711 12.7071C2.89464 12.5196 3 12.2652 3 12V9Z" fill="#BEBEBE"/>
<path fill-rule="evenodd" clip-rule="evenodd" d="M3 17C3 16.7348 2.89464 16.4804 2.70711 16.2929C2.51957 16.1054 2.26522 16 2 16C1.73478 16 1.48043 16.1054 1.29289 16.2929C1.10536 16.4804 1 16.7348 1 17V23C1 27.4185 4.5815 31 9 31H23C27.4185 31 31 27.4185 31 23V16C31 15.7348 30.8946 15.4804 30.7071 15.2929C30.5196 15.1054 30.2652 15 30 15C29.7348 15 29.4804 15.1054 29.2929 15.2929C29.1054 15.4804 29 15.7348 29 16V22.2705C26.7085 18.6875 21.444 18.732 19.1585 22.1845L16.574 19.1305C13.5105 15.5095 7.8085 15.92 5.2945 19.942L3.027 23.5705C3.00906 23.3809 3.00005 23.1905 3 23V17ZM27.561 23.7885L28.423 25.5705C28.0618 26.3306 27.5451 27.0064 26.9064 27.5543C26.2677 28.1023 25.5212 28.5101 24.715 28.7515L20.5345 23.8105C21.907 20.891 26.1215 20.8145 27.561 23.7885ZM3.8335 26.0525C4.36394 26.9507 5.1195 27.695 6.02557 28.2119C6.93163 28.7288 7.95686 29.0005 9 29H22.305L15.048 20.4225C12.8595 17.836 8.7865 18.129 6.991 21.0025L3.848 26.03L3.8335 26.0525Z" fill="#BEBEBE"/>
<path d="M19 6.5C18.7348 6.5 18.4804 6.60536 18.2929 6.79289C18.1054 6.98043 18 7.23478 18 7.5C18 7.76522 18.1054 8.01957 18.2929 8.20711C18.4804 8.39464 18.7348 8.5 19 8.5H23.5V13C23.5 13.2652 23.6054 13.5196 23.7929 13.7071C23.9804 13.8946 24.2348 14 24.5 14C24.7652 14 25.0196 13.8946 25.2071 13.7071C25.3946 13.5196 25.5 13.2652 25.5 13V8.5H30C30.2652 8.5 30.5196 8.39464 30.7071 8.20711C30.8946 8.01957 31 7.76522 31 7.5C31 7.23478 30.8946 6.98043 30.7071 6.79289C30.5196 6.60536 30.2652 6.5 30 6.5H25.5V2C25.5 1.73478 25.3946 1.48043 25.2071 1.29289C25.0196 1.10536 24.7652 1 24.5 1C24.2348 1 23.9804 1.10536 23.7929 1.29289C23.6054 1.48043 23.5 1.73478 23.5 2V6.5H19Z" fill="#BEBEBE"/>
</svg>
