<svg width="512" height="104" viewBox="0 0 512 104" fill="none" xmlns="http://www.w3.org/2000/svg">
<path d="M51.2004 103.2C79.4775 103.2 102.401 80.2766 102.401 51.9994C102.401 23.7222 79.4775 0.799042 51.2004 0.799042C22.9232 0.799042 0 23.7222 0 51.9994C0 80.2766 22.9232 103.2 51.2004 103.2Z" fill="white"/>
<path d="M255.999 103.2C284.277 103.2 307.2 80.2766 307.2 51.9994C307.2 23.7222 284.277 0.799042 255.999 0.799042C227.722 0.799042 204.799 23.7222 204.799 51.9994C204.799 80.2766 227.722 103.2 255.999 103.2Z" fill="white"/>
<path d="M460.8 103.2C489.077 103.2 512 80.2766 512 51.9994C512 23.7222 489.077 0.799042 460.8 0.799042C432.523 0.799042 409.599 23.7222 409.599 51.9994C409.599 80.2766 432.523 103.2 460.8 103.2Z" fill="white"/>
</svg>
