<svg width="462" height="268" viewBox="0 0 462 268" fill="none" xmlns="http://www.w3.org/2000/svg">
<path d="M420.44 0.880005H103C80.472 0.880005 62.04 19.312 62.04 41.84V57.2C62.04 62.832 66.648 67.44 72.28 67.44C77.912 67.44 82.52 62.832 82.52 57.2V41.84C82.52 39.792 83.032 37.744 83.544 35.696L198.232 134L83.544 232.304C83.032 230.256 82.52 228.208 82.52 226.16V210.8C82.52 205.168 77.912 200.56 72.28 200.56C66.648 200.56 62.04 205.168 62.04 210.8V226.16C62.04 248.688 80.472 267.12 103 267.12H420.44C442.968 267.12 461.4 248.688 461.4 226.16V41.84C461.4 19.312 442.968 0.880005 420.44 0.880005ZM98.904 21.872C99.928 21.36 101.464 21.36 103 21.36H420.44C421.976 21.36 423.512 21.36 424.536 21.872L268.376 155.504C264.28 158.576 259.16 158.576 255.064 155.504L98.904 21.872ZM420.44 246.64H103C101.464 246.64 99.928 246.64 98.904 246.128L214.104 147.312L241.752 171.376C247.384 176.496 254.552 179.056 261.72 179.056C268.888 179.056 276.056 176.496 281.688 171.376L309.336 147.312L424.536 246.128C423.512 246.64 421.976 246.64 420.44 246.64ZM440.92 226.16C440.92 228.208 440.408 230.256 439.896 232.304L325.208 134L439.896 35.696C440.408 37.744 440.92 39.792 440.92 41.84V226.16ZM31.32 108.4C31.32 102.768 35.928 98.16 41.56 98.16H103C108.632 98.16 113.24 102.768 113.24 108.4C113.24 114.032 108.632 118.64 103 118.64H41.56C35.928 118.64 31.32 114.032 31.32 108.4ZM103 169.84H10.84C5.20798 169.84 0.599976 165.232 0.599976 159.6C0.599976 153.968 5.20798 149.36 10.84 149.36H103C108.632 149.36 113.24 153.968 113.24 159.6C113.24 165.232 108.632 169.84 103 169.84Z" fill="white"/>
</svg>
