<svg width="480" height="352" viewBox="0 0 480 352" fill="none" xmlns="http://www.w3.org/2000/svg">
<path d="M460.064 85.44C453.911 80.9497 446.768 78.0065 439.237 76.8591C431.707 75.7118 424.011 76.394 416.8 78.848L384 89.824V80C383.975 58.7905 375.538 38.4569 360.54 23.4595C345.543 8.46211 325.21 0.0254057 304 0H80C58.7905 0.0254057 38.4569 8.46211 23.4595 23.4595C8.46211 38.4569 0.0254057 58.7905 0 80V272C0.0254057 293.21 8.46211 313.543 23.4595 328.54C38.4569 343.538 58.7905 351.975 80 352H304C325.21 351.975 345.543 343.538 360.54 328.54C375.538 313.543 383.975 293.21 384 272V262.176L416.8 273.152C424.019 275.555 431.706 276.208 439.227 275.058C446.748 273.908 453.888 270.988 460.059 266.539C466.231 262.089 471.257 256.237 474.724 249.464C478.191 242.692 479.999 235.192 480 227.584V124.416C480.045 116.801 478.257 109.288 474.788 102.51C471.318 95.7314 466.268 89.8557 460.064 85.44ZM448 227.616C448.003 230.153 447.403 232.654 446.25 234.913C445.096 237.172 443.422 239.124 441.365 240.609C439.308 242.093 436.928 243.068 434.421 243.452C431.913 243.835 429.351 243.618 426.944 242.816L373.056 224.832C370.652 224.031 368.092 223.813 365.587 224.195C363.082 224.577 360.704 225.549 358.648 227.03C356.592 228.511 354.917 230.459 353.761 232.714C352.606 234.969 352.002 237.466 352 240V272C351.983 284.725 346.921 296.924 337.922 305.922C328.924 314.921 316.725 319.983 304 320H80C67.2748 319.983 55.0757 314.921 46.0776 305.922C37.0795 296.924 32.0169 284.725 32 272V80C32.0169 67.2748 37.0795 55.0757 46.0776 46.0776C55.0757 37.0795 67.2748 32.0169 80 32H304C316.725 32.0169 328.924 37.0795 337.922 46.0776C346.921 55.0757 351.983 67.2748 352 80V112C351.996 114.531 352.594 117.027 353.746 119.28C354.898 121.534 356.57 123.481 358.624 124.96C360.687 126.436 363.067 127.407 365.574 127.796C368.08 128.185 370.643 127.981 373.056 127.2L426.944 109.216C429.341 108.387 431.904 108.152 434.412 108.531C436.92 108.91 439.299 109.892 441.344 111.392C443.417 112.87 445.103 114.825 446.262 117.092C447.42 119.358 448.016 121.87 448 124.416V227.616Z" fill="white"/>
</svg>
